<?xml version="1.0" encoding="UTF-8"?>
<svg version="1.1" xmlns="http://www.w3.org/2000/svg" width="207" height="195">
<path d="M0 0 C68.31 0 136.62 0 207 0 C207 64.35 207 128.7 207 195 C138.69 195 70.38 195 0 195 C0 130.65 0 66.3 0 0 Z " fill="#FCFDFE" transform="translate(0,0)"/>
<path d="M0 0 C0.95877548 -0.01283524 1.91755096 -0.02567047 2.90538025 -0.03889465 C3.93764236 -0.04628159 4.96990448 -0.05366852 6.03344727 -0.0612793 C7.10675797 -0.06935104 8.18006866 -0.07742279 9.28590393 -0.08573914 C11.56135449 -0.09956887 13.8368257 -0.11029599 16.11230469 -0.11816406 C18.42128651 -0.12964028 20.73024273 -0.15002211 23.0390625 -0.1796875 C40.34048593 -0.40189851 56.56694096 -0.35190495 70.15844727 11.98950195 C87.76796555 30.77298813 82.16235352 55.29943972 82.16235352 80.17700195 C41.57235352 80.17700195 0.98235352 80.17700195 -40.83764648 80.17700195 C-40.83764648 24.55357099 -40.83764648 24.55357099 -28.83764648 12.17700195 C-21.27940063 5.02775208 -10.45651755 0.12252091 0 0 Z " fill="#0B435C" transform="translate(82.837646484375,25.822998046875)"/>
<path d="M0 0 C31.35 0 62.7 0 95 0 C96.07396066 4.29584263 96.07329796 7.60212211 96 12 C96.92232422 12.29003906 96.92232422 12.29003906 97.86328125 12.5859375 C98.67152344 12.84632812 99.47976562 13.10671875 100.3125 13.375 C101.51326172 13.75785156 101.51326172 13.75785156 102.73828125 14.1484375 C105 15 105 15 108 17 C108.4375 23.125 108.4375 23.125 107 26 C102.38 26 97.76 26 93 26 C92.34 27.98 91.68 29.96 91 32 C90.55785156 32.85464844 90.11570312 33.70929688 89.66015625 34.58984375 C89.33337891 35.78287109 89.33337891 35.78287109 89 37 C90.32644739 39.42398627 90.32644739 39.42398627 92.4375 41.5625 C94.49609375 43.81640625 94.49609375 43.81640625 96 46 C95.77227721 48.89154979 95.02216582 49.97070946 93.25 52.3125 C91 54 91 54 88.625 54 C86 53 86 53 83 50.875 C80.21835236 48.75402506 80.21835236 48.75402506 77.375 49.0625 C74.86514221 50.05323334 73.10403615 51.33128167 71 53 C70.34 53 69.68 53 69 53 C69 57.95 69 62.9 69 68 C64.545 68.99 64.545 68.99 60 70 C58.02 66.37 56.04 62.74 54 59 C47.92493612 58.28519554 47.92493612 58.28519554 42 59 C39.15028144 61.97498092 37.54516951 65.20484682 36 69 C33.03 68.67 30.06 68.34 27 68 C27 63.05 27 58.1 27 53 C25.35 52.34 23.7 51.68 22 51 C21.01 50.34 20.02 49.68 19 49 C15.5419217 49.19211546 13.29691215 50.38123322 10.4375 52.1875 C7 54 7 54 4.75 53.4375 C4.1725 52.963125 3.595 52.48875 3 52 C2.401875 51.566875 1.80375 51.13375 1.1875 50.6875 C0 49 0 49 0 46.6875 C1 44 1 44 3.625 41 C6.274645 38.3107308 6.274645 38.3107308 5.9375 35.5 C5.628125 34.675 5.31875 33.85 5 33 C4.32962391 31.0012403 3.66254155 29.00137032 3 27 C2.00097656 27.01160156 1.00195312 27.02320313 -0.02734375 27.03515625 C-1.31769531 27.04417969 -2.60804687 27.05320313 -3.9375 27.0625 C-5.22527344 27.07410156 -6.51304688 27.08570313 -7.83984375 27.09765625 C-11 27 -11 27 -12 26 C-12.23192865 24.48530552 -12.41215238 22.96245438 -12.5625 21.4375 C-12.64628906 20.61121094 -12.73007812 19.78492188 -12.81640625 18.93359375 C-12.90728516 17.97646484 -12.90728516 17.97646484 -13 17 C-11.39967863 16.15930585 -9.79458829 15.32768495 -8.1875 14.5 C-7.29417969 14.0359375 -6.40085937 13.571875 -5.48046875 13.09375 C-3 12 -3 12 0 12 C0 8.04 0 4.08 0 0 Z " fill="#0C435C" transform="translate(56,115)"/>
<path d="M0 0 C3.10352458 1.60923497 5.21701424 3.00347267 7.375 5.75 C8.83199331 10.99517593 8.67684801 14.67047713 6.25 19.4375 C4 22 4 22 0 23 C0 35.21 0 47.42 0 60 C1.32 60.33 2.64 60.66 4 61 C7.10264032 63.70589464 8.71085812 65.39418464 9.4453125 69.47314453 C9.60075998 72.35250236 9.58370491 75.18038776 9.5 78.0625 C9.50386719 79.53299805 9.50386719 79.53299805 9.5078125 81.03320312 C9.4223275 87.32917356 8.65691243 91.03652075 4.375 95.8125 C2 97 2 97 -7 97 C-7 72.58 -7 48.16 -7 23 C-8.32 22.67 -9.64 22.34 -11 22 C-14.01272171 18.64296723 -15.82157375 16.29996265 -16.4375 11.8125 C-15.86024036 6.78209455 -13.65900216 4.35566519 -10 1 C-6.78501861 -0.6074907 -3.48701742 -0.47314549 0 0 Z " fill="#14465C" transform="translate(180,9)"/>
<path d="M0 0 C3.75212276 2.01502889 5.63644095 3.45466142 8 7 C8.70332744 11.82515334 8.68928759 15.79374672 6.25 20.0625 C4 22 4 22 0 23 C0 47.42 0 71.84 0 97 C-10 97 -10 97 -13.0859375 95.30859375 C-16.11369002 90.07490725 -15.72299773 84.99789574 -15.625 79.0625 C-15.64433594 77.89525391 -15.66367187 76.72800781 -15.68359375 75.52539062 C-15.62930799 65.99824037 -15.62930799 65.99824037 -12.5859375 62.24609375 C-10 60 -10 60 -8 59 C-7.67 47.12 -7.34 35.24 -7 23 C-8.32 22.67 -9.64 22.34 -11 22 C-14.84632292 18.4833619 -15.75531741 15.17497361 -16.09765625 10.1484375 C-15.95419467 6.99228279 -15.07793238 5.35499003 -13 3 C-9.05525001 -0.26850714 -4.97867919 -0.89635711 0 0 Z " fill="#114359" transform="translate(34,9)"/>
<path d="M0 0 C18.15 0 36.3 0 55 0 C53.82277727 8.24055912 51.15410608 12.31197308 45.125 17.8125 C37.5279361 23.13044473 30.13946532 24.18352788 21 23 C17.34881046 21.75325235 14.23789514 20.08150402 11 18 C10.0925 17.46375 9.185 16.9275 8.25 16.375 C4.21014205 12.1107055 0 5.99746564 0 0 Z " fill="#F9FCFC" transform="translate(76,130)"/>
<path d="M0 0 C3.88446678 2.58964452 6.69907021 5.64814041 8.8125 9.875 C9.18631854 15.48227817 8.99740827 19.04272538 5.8125 23.875 C0.63976835 28.5430749 -2.58390527 29.24291117 -9.42578125 29.14453125 C-13.40282391 28.75638989 -15.33406864 27.65883547 -18.1875 24.875 C-21.11505458 20.92101623 -22.54065241 17.26425223 -22.3125 12.3125 C-21.48484254 7.38068543 -18.96086782 4.06513064 -15.1875 0.875 C-10.22125385 -2.09880009 -5.30548508 -1.87252415 0 0 Z " fill="#F1F9F9" transform="translate(136.1875,56.125)"/>
<path d="M0 0 C5.30862686 2.15944143 8.36242127 4.77022399 11.1796875 9.7890625 C12.64214937 13.73074545 12.29534898 17.05024737 11 21 C8.81168244 25.24743556 6.54743268 28.2603238 2 30 C-2.84773003 30.71109157 -7.81981948 31.12198619 -12.26953125 28.83203125 C-15.63455973 26.07625003 -18.07155779 23.33273032 -19 19 C-19.45503372 14.22214592 -19.52947247 12.01972475 -17.3125 7.75 C-12.24101229 1.71904165 -7.95815158 -0.99476895 0 0 Z " fill="#F2F9FA" transform="translate(81,55)"/>
<path d="M0 0 C18.15 0 36.3 0 55 0 C51.75715221 2.16189853 50.89903779 2.24626755 47.16137695 2.22705078 C45.69019157 2.22682419 45.69019157 2.22682419 44.18928528 2.22659302 C43.13295395 2.21627045 42.07662262 2.20594788 40.98828125 2.1953125 C39.90491989 2.1924826 38.82155853 2.18965271 37.70536804 2.18673706 C34.24096692 2.17553091 30.77682315 2.15042534 27.3125 2.125 C24.96549852 2.11497077 22.618493 2.10584482 20.27148438 2.09765625 C14.51422357 2.07559012 8.75715544 2.04105712 3 2 C3.66 4.97 4.32 7.94 5 11 C0 4.63636364 0 4.63636364 0 0 Z " fill="#C3DADE" transform="translate(76,130)"/>
<path d="M0 0 C1.8125 1.0625 1.8125 1.0625 3 3 C3.3125 6.5625 3.3125 6.5625 3 10 C1 12 1 12 -2.5 12.25 C-6 12 -6 12 -8 10 C-8.55416667 3.90416667 -8.55416667 3.90416667 -6.8125 1.0625 C-4.33950907 -0.38718434 -2.82115488 -0.42317323 0 0 Z " fill="#194659" transform="translate(132,64)"/>
<path d="M0 0 C2.9375 0.8125 2.9375 0.8125 4.9375 2.8125 C5.26704432 5.91021665 5.39084601 7.98581023 3.875 10.75 C0.75607551 12.46037795 -1.71807801 11.61763863 -5.0625 10.8125 C-6.46185013 8.01379973 -6.31515405 5.90751208 -6.0625 2.8125 C-4.31169972 -0.20276715 -3.50175349 -0.21439307 0 0 Z " fill="#194356" transform="translate(78.0625,64.1875)"/>
<path d="M0 0 C0 0.66 0 1.32 0 2 C-0.7425 2.391875 -1.485 2.78375 -2.25 3.1875 C-5.7892214 5.52016865 -7.57730304 8.01304085 -9 12 C-8.91778291 15.07665027 -8.91778291 15.07665027 -8 18 C-7.66666667 20 -7.33333333 22 -7 24 C-10.34916507 20.94206668 -10.9363898 18.7760444 -11.3125 14.1875 C-11.24804334 9.79639006 -9.84937886 7.38845054 -7 4 C-2.57894737 0 -2.57894737 0 0 0 Z " fill="#D4E7EC" transform="translate(73,56)"/>
<path d="M0 0 C1.051875 -0.02126953 1.051875 -0.02126953 2.125 -0.04296875 C4 0.1875 4 0.1875 6 2.1875 C4.2365625 2.001875 4.2365625 2.001875 2.4375 1.8125 C-2.07243415 1.82051054 -4.38030344 3.32339895 -7.58984375 6.38671875 C-9.79058802 9.19708748 -10.37171061 11.69700337 -11 15.1875 C-11.33 15.1875 -11.66 15.1875 -12 15.1875 C-12.42056594 11.75287817 -12.63981991 9.19264918 -10.734375 6.19921875 C-7.3748448 2.26074038 -5.33064718 0.04899492 0 0 Z " fill="#325666" transform="translate(176,8.8125)"/>
<path d="M0 0 C0.33 0 0.66 0 1 0 C1.92255125 15.74487472 1.92255125 15.74487472 -4 23 C-5.32 22.67 -6.64 22.34 -8 22 C-7.21625 21.443125 -6.4325 20.88625 -5.625 20.3125 C-1.98165212 17.10288401 -1.18031847 14.45105338 -0.5859375 9.66796875 C-0.51632813 8.51941406 -0.44671875 7.37085937 -0.375 6.1875 C-0.26285156 4.44533203 -0.26285156 4.44533203 -0.1484375 2.66796875 C-0.09945312 1.78753906 -0.05046875 0.90710938 0 0 Z " fill="#E8F5F6" transform="translate(190,83)"/>
<path d="M0 0 C0.33 0 0.66 0 1 0 C1 4.62 1 9.24 1 14 C-1.97 14.66 -4.94 15.32 -8 16 C-8 15.01 -8 14.02 -8 13 C-6.02 12.67 -4.04 12.34 -2 12 C-1.34 8.04 -0.68 4.08 0 0 Z " fill="#3F5F6B" transform="translate(124,169)"/>
<path d="M0 0 C1 3 1 3 0.1796875 5.04296875 C-1.11516833 7.17133957 -2.3490422 9.13123774 -4 11 C-6.8125 11.5 -6.8125 11.5 -9 11 C-7.625 9.5 -7.625 9.5 -6 8 C-5.34 8 -4.68 8 -4 8 C-3.896875 7.4225 -3.79375 6.845 -3.6875 6.25 C-2.90207202 3.67950842 -1.69495803 2.06342716 0 0 Z " fill="#224857" transform="translate(96,173)"/>
<path d="M0 0 C4.62 0 9.24 0 14 0 C10.98082379 2.01278414 9.95409238 2.29192943 6.5 2.5625 C3.72110398 2.78944318 1.67744737 3.10751754 -1 4 C-0.67 2.68 -0.34 1.36 0 0 Z " fill="#C3D7DB" transform="translate(149,141)"/>
<path d="M0 0 C-1.875 3.875 -1.875 3.875 -3 5 C-3.23427778 7.01594582 -3.41336124 9.038474 -3.5625 11.0625 C-3.64628906 12.16722656 -3.73007813 13.27195313 -3.81640625 14.41015625 C-3.87699219 15.26480469 -3.93757813 16.11945313 -4 17 C-4.33 17 -4.66 17 -5 17 C-5.08076963 14.54101345 -5.14037143 12.08466258 -5.1875 9.625 C-5.21263672 8.92632812 -5.23777344 8.22765625 -5.26367188 7.5078125 C-5.29296875 5.4765625 -5.29296875 5.4765625 -5 2 C-2 0 -2 0 0 0 Z " fill="#E7F6F8" transform="translate(130,166)"/>
<path d="M0 0 C1.08667969 0.01804687 2.17335938 0.03609375 3.29296875 0.0546875 C4.54013672 0.08949219 4.54013672 0.08949219 5.8125 0.125 C5.8125 0.785 5.8125 1.445 5.8125 2.125 C5.14863281 2.10179687 4.48476563 2.07859375 3.80078125 2.0546875 C-2.94642553 1.82521822 -2.94642553 1.82521822 -9.1875 4.125 C-9.5175 4.785 -9.8475 5.445 -10.1875 6.125 C-9.875 4.25 -9.875 4.25 -9.1875 2.125 C-5.66070901 -0.22619399 -4.15870515 -0.08943452 0 0 Z " fill="#D9EAEE" transform="translate(30.1875,7.875)"/>
<path d="M0 0 C5.26053037 -0.31563182 8.44573816 0.33409063 13 3 C12.67 3.99 12.34 4.98 12 6 C8 4 4 2 0 0 Z " fill="#22495C" transform="translate(129,54)"/>
<path d="M0 0 C0.66 0 1.32 0 2 0 C1.67 0.99 1.34 1.98 1 3 C0.77281504 5.56634861 0.58391816 8.11678107 0.4375 10.6875 C0.39431641 11.38939453 0.35113281 12.09128906 0.30664062 12.81445312 C0.2008264 14.54275206 0.09993419 16.2713511 0 18 C-0.33 18 -0.66 18 -1 18 C-1.02684312 15.18743719 -1.04676188 12.37512759 -1.0625 9.5625 C-1.07087891 8.76005859 -1.07925781 7.95761719 -1.08789062 7.13085938 C-1.0965143 5.08704779 -1.0522815 3.04316098 -1 1 C-0.67 0.67 -0.34 0.34 0 0 Z " fill="#F0FBFB" transform="translate(36,31)"/>
<path d="M0 0 C0.66 0.99 1.32 1.98 2 3 C1.34 4.32 0.68 5.64 0 7 C-0.66 7 -1.32 7 -2 7 C-2.33 8.32 -2.66 9.64 -3 11 C-3.32613618 6.32538149 -2.70582788 3.83325617 0 0 Z " fill="#3A5F6E" transform="translate(21,12)"/>
<path d="M0 0 C-1.5830577 4.2742558 -4.50568404 6.26531794 -8 9 C-6.68994234 5.06982701 -4.75047804 0 0 0 Z " fill="#DEEEF1" transform="translate(123,57)"/>
<path d="M0 0 C-1.24556092 0.81928886 -2.49666635 1.63015186 -3.75 2.4375 C-4.44609375 2.88996094 -5.1421875 3.34242187 -5.859375 3.80859375 C-7.92957014 4.9608009 -9.68696324 5.54676982 -12 6 C-4.8 -1.6 -4.8 -1.6 0 0 Z " fill="#DDEFF1" transform="translate(66,31)"/>
<path d="M0 0 C0 3 0 3 -2.5 5.6875 C-3.325 6.450625 -4.15 7.21375 -5 8 C-5.99 7.67 -6.98 7.34 -8 7 C-5.36 4.69 -2.72 2.38 0 0 Z " fill="#2B5363" transform="translate(59,34)"/>
<path d="M0 0 C-0.8125 1.9375 -0.8125 1.9375 -2 4 C-2.99 4.33 -3.98 4.66 -5 5 C-5 5.99 -5 6.98 -5 8 C-5.66 8 -6.32 8 -7 8 C-4.18918919 0 -4.18918919 0 0 0 Z " fill="#1B4354" transform="translate(26,69)"/>
<path d="M0 0 C3.3 0 6.6 0 10 0 C10 0.33 10 0.66 10 1 C8.14375 1.1546875 8.14375 1.1546875 6.25 1.3125 C2.7207134 1.73801682 0.62839034 2.48112592 -2 5 C-1.34 3.35 -0.68 1.7 0 0 Z " fill="#D8ECF2" transform="translate(98,173)"/>
<path d="M0 0 C0.66 0 1.32 0 2 0 C0.90931332 3.77545388 0.0916909 6.47043472 -3 9 C-2.5020163 5.26512223 -2.12508244 3.18762365 0 0 Z " fill="#1D4657" transform="translate(147,141)"/>
</svg>
