<svg xmlns="http://www.w3.org/2000/svg" version="1.1" viewBox="47.104 393.216 915.456 223.232" style="max-height: 500px" width="915.456" height="223.232">
<path transform="translate(0,0)" fill="#FEFEFE" d="M0 0 C337.92 0 675.84 0 1024 0 C1024 337.92 1024 675.84 1024 1024 C686.08 1024 348.16 1024 0 1024 C0 686.08 0 348.16 0 0 Z"/>
<path transform="translate(132.837646484375,438.822998046875)" fill="#0B435C" d="M0 0 C0.95877548 -0.01283524 1.91755096 -0.02567047 2.90538025 -0.03889465 C3.93764236 -0.04628159 4.96990448 -0.05366852 6.03344727 -0.0612793 C7.10675797 -0.06935104 8.18006866 -0.07742279 9.28590393 -0.08573914 C11.56135449 -0.09956887 13.8368257 -0.11029599 16.11230469 -0.11816406 C18.42128651 -0.12964028 20.73024273 -0.15002211 23.0390625 -0.1796875 C40.34048593 -0.40189851 56.56694096 -0.35190495 70.15844727 11.98950195 C87.76796555 30.77298813 82.16235352 55.29943972 82.16235352 80.17700195 C41.57235352 80.17700195 0.98235352 80.17700195 -40.83764648 80.17700195 C-40.83764648 24.55357099 -40.83764648 24.55357099 -28.83764648 12.17700195 C-21.27940063 5.02775208 -10.45651755 0.12252091 0 0 Z"/>
<path transform="translate(106,528)" fill="#0C435C" d="M0 0 C31.35 0 62.7 0 95 0 C96.07396066 4.29584263 96.07329796 7.60212211 96 12 C96.92232422 12.29003906 96.92232422 12.29003906 97.86328125 12.5859375 C98.67152344 12.84632813 99.47976562 13.10671875 100.3125 13.375 C101.51326172 13.75785156 101.51326172 13.75785156 102.73828125 14.1484375 C105 15 105 15 108 17 C108.4375 23.125 108.4375 23.125 107 26 C102.38 26 97.76 26 93 26 C92.34 27.98 91.68 29.96 91 32 C90.55785156 32.85464844 90.11570312 33.70929687 89.66015625 34.58984375 C89.33337891 35.78287109 89.33337891 35.78287109 89 37 C90.32644739 39.42398627 90.32644739 39.42398627 92.4375 41.5625 C94.49609375 43.81640625 94.49609375 43.81640625 96 46 C95.77227721 48.89154979 95.02216582 49.97070946 93.25 52.3125 C91 54 91 54 88.625 54 C86 53 86 53 83 50.875 C80.21835236 48.75402506 80.21835236 48.75402506 77.375 49.0625 C74.86514221 50.05323334 73.10403615 51.33128167 71 53 C70.34 53 69.68 53 69 53 C69 57.95 69 62.9 69 68 C64.545 68.99 64.545 68.99 60 70 C58.02 66.37 56.04 62.74 54 59 C47.92493612 58.28519554 47.92493612 58.28519554 42 59 C39.15028144 61.97498092 37.54516951 65.20484682 36 69 C33.03 68.67 30.06 68.34 27 68 C27 63.05 27 58.1 27 53 C25.35 52.34 23.7 51.68 22 51 C21.01 50.34 20.02 49.68 19 49 C15.5419217 49.19211546 13.29691215 50.38123322 10.4375 52.1875 C7 54 7 54 4.75 53.4375 C4.1725 52.963125 3.595 52.48875 3 52 C2.401875 51.566875 1.80375 51.13375 1.1875 50.6875 C0 49 0 49 0 46.6875 C1 44 1 44 3.625 41 C6.274645 38.3107308 6.274645 38.3107308 5.9375 35.5 C5.628125 34.675 5.31875 33.85 5 33 C4.32962391 31.0012403 3.66254155 29.00137032 3 27 C2.00097656 27.01160156 1.00195312 27.02320313 -0.02734375 27.03515625 C-1.31769531 27.04417969 -2.60804687 27.05320312 -3.9375 27.0625 C-5.22527344 27.07410156 -6.51304688 27.08570313 -7.83984375 27.09765625 C-11 27 -11 27 -12 26 C-12.23192865 24.48530552 -12.41215238 22.96245438 -12.5625 21.4375 C-12.64628906 20.61121094 -12.73007813 19.78492188 -12.81640625 18.93359375 C-12.90728516 17.97646484 -12.90728516 17.97646484 -13 17 C-11.39967863 16.15930585 -9.79458829 15.32768495 -8.1875 14.5 C-7.29417969 14.0359375 -6.40085937 13.571875 -5.48046875 13.09375 C-3 12 -3 12 0 12 C0 8.04 0 4.08 0 0 Z"/>
<path transform="translate(811,442)" fill="#259BB2" d="M0 0 C7.26 0 14.52 0 22 0 C22.0093457 1.98773438 22.01869141 3.97546875 22.02832031 6.0234375 C22.06393556 12.61336821 22.11778915 19.20295566 22.18390274 25.79264832 C22.22330176 29.78544688 22.25552702 33.77802742 22.27099609 37.77099609 C22.28621313 41.62921582 22.32074656 45.48683584 22.36830902 49.3447876 C22.38307116 50.81181608 22.39103804 52.27893021 22.39188385 53.74603271 C22.40106785 61.69306581 22.47695516 68.2018782 27 75 C32.47221208 80.19860148 36.77475005 81.40809946 44.17578125 81.25 C49.38830527 80.78858709 53.3739888 79.49417246 57.3125 75.875 C62.33160714 67.32392857 62.46795865 58.84965258 62.51171875 49.12109375 C62.52859459 47.69904561 62.54674867 46.27701212 62.56611633 44.85499573 C62.61330791 41.14139385 62.64331538 37.4278514 62.66955566 33.71405029 C62.69951836 29.91276315 62.74599402 26.11168021 62.79101562 22.31054688 C62.87669718 14.87378257 62.94266768 7.43704679 63 0 C69.93 0 76.86 0 84 0 C84.09097423 8.23316789 84.16409924 16.46593404 84.20724869 24.69947243 C84.22797569 28.52412465 84.25601411 32.34841025 84.30175781 36.17285156 C84.34575596 39.87523284 84.36924846 43.57726528 84.37950897 47.27988815 C84.38680502 48.68066258 84.401047 50.08142157 84.42292023 51.48204422 C84.63850393 65.88140012 82.14412672 80.06384404 72.15234375 91.02734375 C62.50359684 100.10061868 50.722471 102.51770332 37.8203125 102.3125 C26.11470386 101.354986 16.34698903 96.17706475 8.6875 87.375 C2.35018191 79.03044372 -0.13362257 68.81562601 -0.11352539 58.46557617 C-0.11344986 57.16460495 -0.11337433 55.86363373 -0.11329651 54.52323914 C-0.10819062 53.11314861 -0.10297464 51.70305849 -0.09765625 50.29296875 C-0.09578979 48.84279937 -0.09436696 47.39262935 -0.09336853 45.94245911 C-0.0895613 42.13667034 -0.07974642 38.33092009 -0.06866455 34.52514648 C-0.05841177 30.63721233 -0.05386264 26.74927192 -0.04882812 22.86132812 C-0.03812246 15.24086587 -0.02054028 7.62044325 0 0 Z"/>
<path transform="translate(410,450)" fill="#0F445B" d="M0 0 C4.95 0 9.9 0 15 0 C15.33 9.57 15.66 19.14 16 29 C18.97 27.02 21.94 25.04 25 23 C33.03132555 20.32289148 42.30305752 21.23338827 49.890625 24.81640625 C57.82642393 29.26927121 61.61716216 35.90939189 65.375 43.9375 C67.44023201 54.05713687 65.62515248 63.2594821 60.75 72.32421875 C56.30473105 78.95423636 49.84161477 82.46335409 42.5625 85.375 C33.41951938 86.97903169 25.28147018 86.46292485 17 82 C7.47392332 75.04998913 2.48841769 67.47870998 0 56 C-0.37893593 51.58418507 -0.35142102 47.20277005 -0.29296875 42.7734375 C-0.28872391 41.54460846 -0.28447906 40.31577942 -0.28010559 39.04971313 C-0.2634279 35.1579111 -0.22579504 31.26664327 -0.1875 27.375 C-0.17243911 24.72266377 -0.15875317 22.07031936 -0.14648438 19.41796875 C-0.11355998 12.94510935 -0.06185268 6.47264499 0 0 Z"/>
<path transform="translate(748.890625,474.7421875)" fill="#0F445A" d="M0 0 C8.37447735 4.99366983 13.47810634 11.85711257 16.109375 21.2578125 C17.26813706 32.50858369 15.46872823 41.82784226 8.984375 51.1328125 C3.81237388 57.36602335 -3.56927608 60.71163299 -11.5546875 61.53125 C-19.17029595 61.7924714 -24.49876393 60.45963352 -30.890625 56.2578125 C-31.550625 55.5978125 -32.210625 54.9378125 -32.890625 54.2578125 C-33.220625 62.8378125 -33.550625 71.4178125 -33.890625 80.2578125 C-38.840625 80.2578125 -43.790625 80.2578125 -48.890625 80.2578125 C-49.01504134 72.52064753 -49.10535126 64.78407625 -49.1652832 57.04614258 C-49.19029052 54.41876062 -49.22430753 51.79144725 -49.26782227 49.16430664 C-49.32908016 45.36847925 -49.35697443 41.57357856 -49.37890625 37.77734375 C-49.40471268 36.61950882 -49.4305191 35.46167389 -49.45710754 34.26875305 C-49.46027099 24.88552056 -47.38806264 15.48549652 -41.640625 7.8203125 C-30.30283704 -2.74444447 -14.48425084 -6.95049621 0 0 Z"/>
<path transform="translate(266,453)" fill="#0C435B" d="M0 0 C44.04658385 0 44.04658385 0 52.3046875 8.07421875 C58.11742974 14.67717249 58.6527142 20.68950279 58.375 29.4375 C57.52115983 37.5489816 53.90489722 41.59359631 47.8046875 46.75 C46 48 46 48 44 48 C46.08197881 51.85489983 48.1658261 55.70878659 50.25 59.5625 C51.12978516 61.19155273 51.12978516 61.19155273 52.02734375 62.85351562 C55.64576786 69.54721149 55.64576786 69.54721149 59.421875 76.15234375 C61 79 61 79 61 81 C55.39 81 49.78 81 44 81 C40.5 74.875 40.5 74.875 39.33203125 72.82666016 C37.46382283 69.55103226 35.5854614 66.28192736 33.6875 63.0234375 C33.13739258 62.07428467 33.13739258 62.07428467 32.57617188 61.10595703 C31.86737709 59.88357547 31.15521675 58.66313828 30.43945312 57.44482422 C28 53.22486481 28 53.22486481 28 51 C23.71 51 19.42 51 15 51 C15 60.9 15 70.8 15 81 C10.05 81 5.1 81 0 81 C0 54.27 0 27.54 0 0 Z"/>
<path transform="translate(536,476)" fill="#0F445A" d="M0 0 C6.67126625 4.53103216 11.92723113 10.0776382 14 18 C15.35569303 28.67102405 14.94155873 38.35940655 8.38671875 47.16796875 C1.95864063 54.99283546 -5.43007044 59.13016337 -15.515625 60.2890625 C-25.72820318 60.64232778 -34.06314047 57.46668243 -41.625 50.625 C-49.55652312 41.85857971 -50.65250417 33.74908533 -50.375 22.43359375 C-49.89568137 14.29715997 -46.04023149 7.95137085 -40.05078125 2.5390625 C-28.55015129 -6.09188646 -12.63128897 -7.08633327 0 0 Z"/>
<path transform="translate(384,476)" fill="#11455B" d="M0 0 C0.64324219 0.33902344 1.28648437 0.67804688 1.94921875 1.02734375 C8.40598521 4.96303003 11.64114623 11.60286556 14.375 18.4375 C16.31295989 29.48387136 14.66286817 39.03604171 8.25 48.375 C2.26827999 55.68765272 -6.23848354 59.23116713 -15.5078125 60.28515625 C-24.94651144 60.62542283 -32.71247592 58.10117065 -39.95703125 52.0234375 C-46.89373578 45.15304946 -50.00491425 37.85701313 -50.3125 28.125 C-50.11537915 18.81393867 -47.14177239 11.07234397 -41 4 C-29.47371579 -5.66720611 -13.19985868 -7.42032872 0 0 Z"/>
<path transform="translate(914,442)" fill="#2399B1" d="M0 0 C6.93 0 13.86 0 21 0 C21 32.67 21 65.34 21 99 C14.07 99 7.14 99 0 99 C0 66.33 0 33.66 0 0 Z"/>
<path transform="translate(628,473)" fill="#15485D" d="M0 0 C5.28 0 10.56 0 16 0 C16.01458252 1.21582764 16.02916504 2.43165527 16.04418945 3.68432617 C16.10225098 8.20399078 16.1794836 12.72316127 16.26245117 17.24243164 C16.29566354 19.19677702 16.32370695 21.15121747 16.34643555 23.10571289 C16.38004933 25.91854282 16.43236854 28.73050447 16.48828125 31.54296875 C16.49467117 32.41398727 16.5010611 33.2850058 16.50764465 34.18241882 C16.6220988 38.92657359 16.93045732 42.1434315 20 46 C24.42028346 49.08391869 29.84502172 48.61951519 35 48 C39.19052765 45.69093374 40.61002352 43.48460572 42 39 C42.3232918 35.99552834 42.37189451 33.00044323 42.4140625 29.98046875 C42.43342865 29.12189774 42.4527948 28.26332672 42.4727478 27.3787384 C42.53231556 24.64842526 42.57883734 21.91806943 42.625 19.1875 C42.66320079 17.33136227 42.70225375 15.47524188 42.7421875 13.61914062 C42.83799827 9.07956856 42.92211321 4.53991354 43 0 C47.95 0 52.9 0 58 0 C58.09944869 5.81660061 58.1717413 11.63269792 58.21972656 17.44995117 C58.23974646 19.4256249 58.26697092 21.40124009 58.30175781 23.37670898 C58.35070207 26.2291515 58.37306525 29.08080549 58.390625 31.93359375 C58.41127014 32.80584091 58.43191528 33.67808807 58.45318604 34.57676697 C58.45626792 43.14734224 55.51177923 50.17404837 49.703125 56.49609375 C43.09095446 62.33482232 35.18376143 63.33909552 26.6484375 63.2109375 C18.58566433 62.56876973 11.77324581 59.70642583 6 54 C0.58017715 46.98326506 -0.30041262 39.10694424 -0.1953125 30.56640625 C-0.1924826 29.68846909 -0.18965271 28.81053192 -0.18673706 27.9059906 C-0.17561598 25.12468355 -0.15052672 22.34370836 -0.125 19.5625 C-0.11495975 17.66732239 -0.10583573 15.77213968 -0.09765625 13.87695312 C-0.07570315 9.25117583 -0.0412296 4.62564402 0 0 Z"/>
<path transform="translate(616.1875,478.25)" fill="#0F4359" d="M0 0 C0.598125 0.5775 1.19625 1.155 1.8125 1.75 C1.20051624 5.18950364 -0.10808847 7.26564485 -2.25 10 C-2.79785156 10.70640625 -3.34570312 11.4128125 -3.91015625 12.140625 C-4.33167969 12.67171875 -4.75320313 13.2028125 -5.1875 13.75 C-5.93773437 13.316875 -6.68796875 12.88375 -7.4609375 12.4375 C-14.04222501 8.85674911 -19.62886351 6.05757802 -27.1875 7.75 C-32.65137948 9.99037965 -36.79803376 13.27413987 -39.1875 18.75 C-39.9858861 25.42157117 -39.85622462 30.94118601 -36.1875 36.75 C-36.1875 37.41 -36.1875 38.07 -36.1875 38.75 C-35.61 39.03875 -35.0325 39.3275 -34.4375 39.625 C-33.06304412 40.31222794 -31.70248463 41.02953574 -30.37109375 41.796875 C-25.44907226 43.94530656 -19.55136498 43.47946052 -14.50390625 41.921875 C-10.06261091 40.22961413 -10.06261091 40.22961413 -7.1875 36.75 C-3.14939555 38.09603482 -1.71454924 40.40336723 0.8125 43.75 C0.8125 44.41 0.8125 45.07 0.8125 45.75 C1.4725 45.75 2.1325 45.75 2.8125 45.75 C0.64985265 51.23979712 -4.13632009 53.21321836 -9.1875 55.75 C-17.5422543 59.12372936 -27.34517992 58.72396638 -35.7734375 55.84765625 C-44.62897725 51.82110824 -50.04861201 45.01695224 -54.3203125 36.48828125 C-56.7625827 28.77642804 -56.54384383 18.37307091 -53 11.0625 C-52.10719958 9.5968193 -51.17332446 8.15479986 -50.1875 6.75 C-49.465625 5.6775 -48.74375 4.605 -48 3.5 C-35.24960823 -8.96704973 -14.58154054 -10.29285214 0 0 Z"/>
<path transform="translate(230,422)" fill="#14465C" d="M0 0 C3.10352458 1.60923497 5.21701424 3.00347267 7.375 5.75 C8.83199331 10.99517593 8.67684801 14.67047713 6.25 19.4375 C4 22 4 22 0 23 C0 35.21 0 47.42 0 60 C1.32 60.33 2.64 60.66 4 61 C7.10264032 63.70589464 8.71085812 65.39418464 9.4453125 69.47314453 C9.60075998 72.35250236 9.58370491 75.18038776 9.5 78.0625 C9.50386719 79.53299805 9.50386719 79.53299805 9.5078125 81.03320312 C9.4223275 87.32917356 8.65691243 91.03652075 4.375 95.8125 C2 97 2 97 -7 97 C-7 72.58 -7 48.16 -7 23 C-8.32 22.67 -9.64 22.34 -11 22 C-14.01272171 18.64296723 -15.82157375 16.29996265 -16.4375 11.8125 C-15.86024036 6.78209455 -13.65900216 4.35566519 -10 1 C-6.78501861 -0.6074907 -3.48701742 -0.47314549 0 0 Z"/>
<path transform="translate(84,422)" fill="#114359" d="M0 0 C3.75212276 2.01502889 5.63644095 3.45466142 8 7 C8.70332744 11.82515334 8.68928759 15.79374672 6.25 20.0625 C4 22 4 22 0 23 C0 47.42 0 71.84 0 97 C-10 97 -10 97 -13.0859375 95.30859375 C-16.11369002 90.07490725 -15.72299773 84.99789574 -15.625 79.0625 C-15.64433594 77.89525391 -15.66367188 76.72800781 -15.68359375 75.52539062 C-15.62930799 65.99824037 -15.62930799 65.99824037 -12.5859375 62.24609375 C-10 60 -10 60 -8 59 C-7.67 47.12 -7.34 35.24 -7 23 C-8.32 22.67 -9.64 22.34 -11 22 C-14.84632292 18.4833619 -15.75531741 15.17497361 -16.09765625 10.1484375 C-15.95419467 6.99228279 -15.07793238 5.35499003 -13 3 C-9.05525001 -0.26850714 -4.97867919 -0.89635711 0 0 Z"/>
<path transform="translate(525.4296875,486.0703125)" fill="#F9FCFC" d="M0 0 C5.41252412 3.24751447 8.82146972 6.80294691 10.5703125 12.9296875 C11.39268567 19.40587624 10.02884653 24.37699525 6.5703125 29.9296875 C3.30457592 33.51943972 0.00200701 35.69682507 -4.91796875 36.16796875 C-10.97625103 36.32717672 -14.72925214 36.1715438 -19.4296875 31.9296875 C-24.39984723 26.40728781 -26.02535494 22.21464041 -25.8671875 14.8203125 C-25.00889563 9.14945552 -22.06115015 4.97086398 -17.56640625 1.484375 C-11.93110752 -1.74547558 -6.02541537 -2.65428266 0 0 Z"/>
<path transform="translate(450.234375,485.8203125)" fill="#F7FBFB" d="M0 0 C5.54777541 2.98245069 8.62752873 7.31716546 10.765625 13.1796875 C12.09774862 19.34518003 10.02985982 24.93894352 6.765625 30.1796875 C3.49988842 33.76943972 0.19731951 35.94682507 -4.72265625 36.41796875 C-10.78093853 36.57717672 -14.53393964 36.4215438 -19.234375 32.1796875 C-23.98634669 27.03171817 -25.75447042 22.46442144 -25.53515625 15.515625 C-24.88285857 10.44972876 -23.00619164 6.87211521 -19.31640625 3.34765625 C-13.21316708 -1.26488026 -7.30135901 -2.68056887 0 0 Z"/>
<path transform="translate(741.140625,486.94921875)" fill="#F9FCFC" d="M0 0 C4.29723425 2.42847902 6.97000755 6.56457396 8.859375 11.05078125 C9.67777465 17.30037854 9.15409722 23.57984029 5.859375 29.05078125 C2.76299574 32.37009981 -0.36709807 34.90135426 -4.96875 35.2890625 C-16.4116412 35.53725306 -16.4116412 35.53725306 -21.140625 31.05078125 C-26.30006883 25.33355971 -26.48843144 20.71025528 -26.421875 13.22265625 C-25.94122904 7.80203788 -23.54034199 5.31052654 -19.640625 1.80078125 C-13.11059517 -2.77023963 -7.41727903 -3.03303464 0 0 Z"/>
<path transform="translate(374.25,486.6875)" fill="#F8FCFC" d="M0 0 C4.78450107 2.65492902 7.59883807 6.32654418 9.75 11.3125 C10.77495697 18.21308239 9.63877442 24.48528451 5.75 30.3125 C0.4962818 34.60124955 -3.98060643 35.73948838 -10.61328125 35.65234375 C-16.5118952 34.89207795 -20.08797183 31.73598451 -23.75 27.25 C-26.42879739 21.78477498 -26.42760879 14.83902899 -24.51953125 9.125 C-22.49462501 5.29007553 -19.80677136 2.71332067 -16.25 0.3125 C-15.651875 -0.1 -15.05375 -0.5125 -14.4375 -0.9375 C-9.31422212 -2.69405242 -4.81768507 -2.22008995 0 0 Z"/>
<path transform="translate(126,543)" fill="#F9FCFC" d="M0 0 C18.15 0 36.3 0 55 0 C53.82277727 8.24055912 51.15410608 12.31197308 45.125 17.8125 C37.5279361 23.13044473 30.13946532 24.18352788 21 23 C17.34881046 21.75325235 14.23789514 20.08150402 11 18 C10.0925 17.46375 9.185 16.9275 8.25 16.375 C4.21014205 12.1107055 0 5.99746564 0 0 Z"/>
<path transform="translate(186.1875,469.125)" fill="#F1F9F9" d="M0 0 C3.88446678 2.58964452 6.69907021 5.64814041 8.8125 9.875 C9.18631854 15.48227817 8.99740827 19.04272538 5.8125 23.875 C0.63976835 28.5430749 -2.58390527 29.24291117 -9.42578125 29.14453125 C-13.40282391 28.75638989 -15.33406864 27.65883547 -18.1875 24.875 C-21.11505458 20.92101623 -22.54065241 17.26425223 -22.3125 12.3125 C-21.48484254 7.38068543 -18.96086782 4.06513064 -15.1875 0.875 C-10.22125385 -2.09880009 -5.30548508 -1.87252415 0 0 Z"/>
<path transform="translate(131,468)" fill="#F2F9FA" d="M0 0 C5.30862686 2.15944143 8.36242127 4.77022399 11.1796875 9.7890625 C12.64214937 13.73074545 12.29534898 17.05024737 11 21 C8.81168244 25.24743556 6.54743268 28.2603238 2 30 C-2.84773003 30.71109157 -7.81981948 31.12198619 -12.26953125 28.83203125 C-15.63455973 26.07625003 -18.07155779 23.33273032 -19 19 C-19.45503372 14.22214592 -19.52947247 12.01972475 -17.3125 7.75 C-12.24101229 1.71904165 -7.95815158 -0.99476895 0 0 Z"/>
<path transform="translate(811,442)" fill="#559FAA" d="M0 0 C7.26 0 14.52 0 22 0 C22 21.12 22 42.24 22 64 C21.67 64 21.34 64 21 64 C21 43.21 21 22.42 21 1 C14.4 1 7.8 1 1 1 C1.04060218 8.97272813 1.09809337 16.94481741 1.18390274 24.91716957 C1.22311851 28.62057685 1.25543177 32.32375557 1.27099609 36.02734375 C1.28633627 39.6132842 1.32107909 43.19859513 1.36830902 46.78425217 C1.3899846 48.79223728 1.39245869 50.80040098 1.39434814 52.8085022 C1.62214183 67.36717157 5.02146985 79.02453697 14.625 90 C16.87861292 91.8977793 18.1102262 92.67891402 21 93 C21 93.66 21 94.32 21 95 C22.65 95.33 24.3 95.66 26 96 C26 96.66 26 97.32 26 98 C42.3516815 99.650048 42.3516815 99.650048 58 96 C61 95.8125 61 95.8125 63 96 C63 95.34 63 94.68 63 94 C63.99 94 64.98 94 66 94 C66.495 92.515 66.495 92.515 67 91 C67.66 91 68.32 91 69 91 C69 90.34 69 89.68 69 89 C69.66 89 70.32 89 71 89 C71.495 87.515 71.495 87.515 72 86 C72.66 85.67 73.32 85.34 74 85 C80.62189534 72.85985854 81.28552782 60.43808115 81.4140625 46.82421875 C81.43342865 45.53304642 81.4527948 44.24187408 81.4727478 42.91157532 C81.52341473 39.52685329 81.56338401 36.14209215 81.60089111 32.75720215 C81.64134858 29.28400529 81.69224722 25.81096178 81.7421875 22.33789062 C81.83816847 15.5587007 81.92184559 8.77941868 82 2 C76.06 1.67 70.12 1.34 64 1 C64.01047363 2.96267822 64.02094727 4.92535645 64.03173828 6.94750977 C64.06405516 13.44942977 64.08699983 19.9513307 64.10362434 26.45330906 C64.11403883 30.3934791 64.12815512 34.33356183 64.15087891 38.27368164 C64.17269091 42.07974538 64.18458617 45.8857254 64.18975449 49.69184685 C64.19343529 51.14023086 64.20062286 52.58861055 64.21146011 54.03695869 C64.22608649 56.07364751 64.22797335 58.1099952 64.22705078 60.14672852 C64.231492 61.30366714 64.23593323 62.46060577 64.24050903 63.65260315 C63.9731374 67.37387277 63.30826678 70.50532805 62 74 C61.01 74.33 60.02 74.66 59 75 C59.21062576 74.38082199 59.42125153 73.76164398 59.63825989 73.123703 C62.14260408 65.03030402 62.47355267 57.34466598 62.51171875 48.92578125 C62.52860505 47.50659168 62.54676045 46.0874167 62.56611633 44.66825867 C62.61319468 40.97112595 62.64327441 37.2740524 62.66955566 33.57672119 C62.6995767 29.78865881 62.74603169 26.00079964 62.79101562 22.21289062 C62.87656769 14.80867832 62.94260082 7.40449388 63 0 C69.93 0 76.86 0 84 0 C84.09097423 8.23316789 84.16409924 16.46593404 84.20724869 24.69947243 C84.22797569 28.52412465 84.25601411 32.34841025 84.30175781 36.17285156 C84.34575596 39.87523284 84.36924846 43.57726528 84.37950897 47.27988815 C84.38680502 48.68066258 84.401047 50.08142157 84.42292023 51.48204422 C84.63850393 65.88140012 82.14412672 80.06384404 72.15234375 91.02734375 C62.50359684 100.10061868 50.722471 102.51770332 37.8203125 102.3125 C26.11470386 101.354986 16.34698903 96.17706475 8.6875 87.375 C2.35018191 79.03044372 -0.13362257 68.81562601 -0.11352539 58.46557617 C-0.11344986 57.16460495 -0.11337433 55.86363373 -0.11329651 54.52323914 C-0.10819062 53.11314861 -0.10297464 51.70305849 -0.09765625 50.29296875 C-0.09578979 48.84279937 -0.09436696 47.39262935 -0.09336853 45.94245911 C-0.0895613 42.13667034 -0.07974642 38.33092009 -0.06866455 34.52514648 C-0.05841177 30.63721233 -0.05386264 26.74927192 -0.04882812 22.86132812 C-0.03812246 15.24086587 -0.02054028 7.62044325 0 0 Z"/>
<path transform="translate(281,468)" fill="#FDFEFE" d="M0 0 C3.34125 -0.103125 6.6825 -0.20625 10.125 -0.3125 C11.68758545 -0.38078003 11.68758545 -0.38078003 13.28173828 -0.45043945 C17.78746204 -0.51760498 21.02445442 -0.52926199 24.6171875 2.39453125 C27.99099803 6.08359949 27.99099803 6.08359949 28.01953125 8.98828125 C27.56205868 14.12405822 26.91742001 17.31301646 23 21 C20.11734851 21.96088383 18.32337729 22.11670941 15.33203125 22.09765625 C14.52741455 22.09515869 13.72279785 22.09266113 12.89379883 22.09008789 C11.36855591 22.07643188 11.36855591 22.07643188 9.8125 22.0625 C4.9553125 22.0315625 4.9553125 22.0315625 0 22 C0 14.74 0 7.48 0 0 Z"/>
<path transform="translate(914,442)" fill="#499BA8" d="M0 0 C6.93 0 13.86 0 21 0 C21 32.67 21 65.34 21 99 C14.07 99 7.14 99 0 99 C0 66.33 0 33.66 0 0 Z M4.875 2.8125 C1.41659627 6.84730436 1.86451852 10.39329706 1.88647461 15.48876953 C1.88632858 16.36688293 1.88618256 17.24499634 1.8860321 18.14971924 C1.88673042 21.0607752 1.89451905 23.97176768 1.90234375 26.8828125 C1.90420822 28.89777593 1.90563198 30.91273981 1.90663147 32.92770386 C1.91045438 38.2377853 1.92028276 43.5478395 1.93133545 48.85791016 C1.94155441 54.27375927 1.94613013 59.68961278 1.95117188 65.10546875 C1.96190521 75.73699115 1.97897894 86.36849331 2 97 C4.45840605 97.02691685 6.91651882 97.04679802 9.375 97.0625 C10.42300781 97.07506836 10.42300781 97.07506836 11.4921875 97.08789062 C15.37295376 97.1835442 15.37295376 97.1835442 19 96 C19 64.98 19 33.96 19 2 C8.99280524 0.02187906 8.99280524 0.02187906 4.875 2.8125 Z"/>
<path transform="translate(872,441)" fill="#E3FEFE" d="M0 0 C7.92 0 15.84 0 24 0 C25.37457949 2.74915899 25.13479575 4.9616139 25.14526367 8.03857422 C25.15164352 9.30684052 25.15802338 10.57510681 25.16459656 11.88180542 C25.16612533 13.27276573 25.16723924 14.66372654 25.16796875 16.0546875 C25.17118127 17.47714268 25.17454534 18.89959752 25.17805481 20.322052 C25.1840478 23.30634324 25.18589457 26.29060551 25.18530273 29.27490234 C25.18520118 33.0971474 25.19884539 36.91920641 25.21607494 40.74140739 C25.22720006 43.68052013 25.22922177 46.619588 25.22869301 49.55871964 C25.22987266 50.96771002 25.23429363 52.37670157 25.24202538 53.78567123 C25.2518336 55.7579687 25.24768081 57.73032061 25.24291992 59.70263672 C25.24434494 60.82467499 25.24576996 61.94671326 25.24723816 63.10275269 C25.00489508 65.94263728 24.47497623 67.59404801 23 70 C21.8998785 66.47290523 21.91407864 63.25949157 21.97827148 59.57910156 C21.99836777 58.27805481 22.01846405 56.97700806 22.03916931 55.63653564 C22.06636376 54.22122991 22.09367463 52.8059264 22.12109375 51.390625 C22.14540664 49.93903357 22.16924961 48.48743419 22.19264221 47.03582764 C22.25536694 43.22172985 22.32446621 39.40777326 22.39489746 35.59381104 C22.46568602 31.69932466 22.53043994 27.80473845 22.59570312 23.91015625 C22.72456575 16.27332478 22.86072115 8.63664991 23 1 C16.07 1 9.14 1 2 1 C2.02094727 2.88114502 2.04189453 4.76229004 2.06347656 6.70043945 C2.12829224 12.95482391 2.17408083 19.20912819 2.20724869 25.46375751 C2.22801684 29.25150328 2.25613353 33.03888163 2.30175781 36.82641602 C2.34560532 40.48988073 2.36921783 44.15299477 2.37950897 47.81670189 C2.38683135 49.20600076 2.40112787 50.59528307 2.42292023 51.98443031 C2.55660908 60.86952373 2.48671815 70.43764492 -3.37689209 77.70698547 C-8.88694595 82.69257963 -15.08501518 83.50196698 -22.234375 83.39453125 C-26.54247636 82.77995747 -29.76120393 80.85776124 -33 78 C-33.33 77.34 -33.66 76.68 -34 76 C-28.125 77.875 -28.125 77.875 -27 79 C-20.29193686 80.23209323 -13.67257405 80.66814351 -7 79 C-7 78.01 -7 77.02 -7 76 C-6.34 76 -5.68 76 -5 76 C-5 75.34 -5 74.68 -5 74 C-4.34 74 -3.68 74 -3 74 C-2.855625 72.948125 -2.71125 71.89625 -2.5625 70.8125 C-2.25820119 68.75003028 -1.93055013 66.68792294 -1.47767639 64.65290833 C-0.93596222 61.64434842 -0.83825931 58.79790268 -0.79467773 55.7409668 C-0.77473251 54.50005783 -0.75478729 53.25914886 -0.73423767 51.9806366 C-0.71725743 50.63683189 -0.70037848 49.29302591 -0.68359375 47.94921875 C-0.66300474 46.56630357 -0.64200777 45.1833944 -0.62062073 43.80049133 C-0.56560101 40.17232151 -0.5161037 36.54409679 -0.46777344 32.91583252 C-0.41741102 29.208813 -0.36180213 25.50187254 -0.30664062 21.79492188 C-0.19930513 14.53001319 -0.0982915 7.2650377 0 0 Z"/>
<path transform="translate(811,442)" fill="#6DB3BC" d="M0 0 C7.26 0 14.52 0 22 0 C22 21.12 22 42.24 22 64 C21.67 64 21.34 64 21 64 C21 43.21 21 22.42 21 1 C14.4 1 7.8 1 1 1 C1.04060218 8.97272813 1.09809337 16.94481741 1.18390274 24.91716957 C1.22311851 28.62057685 1.25543177 32.32375557 1.27099609 36.02734375 C1.28633627 39.6132842 1.32107909 43.19859513 1.36830902 46.78425217 C1.3899846 48.79223728 1.39245869 50.80040098 1.39434814 52.8085022 C1.62214183 67.36717157 5.02146985 79.02453697 14.625 90 C16.87861292 91.8977793 18.1102262 92.67891402 21 93 C21 93.66 21 94.32 21 95 C22.65 95.33 24.3 95.66 26 96 C26 96.66 26 97.32 26 98 C42.3564289 99.7039962 42.3564289 99.7039962 58 96 C58.99 96 59.98 96 61 96 C60.505 97.485 60.505 97.485 60 99 C50.305167 103.65581901 37.70958131 103.44533749 27.625 100.375 C17.79659061 96.58065428 10.58684262 91.03753953 5 82 C1.69533825 74.33051045 -0.12972746 66.80964005 -0.11352539 58.46557617 C-0.11344986 57.16460495 -0.11337433 55.86363373 -0.11329651 54.52323914 C-0.10819062 53.11314861 -0.10297464 51.70305849 -0.09765625 50.29296875 C-0.09578979 48.84279937 -0.09436696 47.39262935 -0.09336853 45.94245911 C-0.0895613 42.13667034 -0.07974642 38.33092009 -0.06866455 34.52514648 C-0.05841177 30.63721233 -0.05386264 26.74927192 -0.04882812 22.86132812 C-0.03812246 15.24086587 -0.02054028 7.62044325 0 0 Z"/>
<path transform="translate(812,443)" fill="#368F9D" d="M0 0 C6.6 0 13.2 0 20 0 C20.01401855 2.7841333 20.01401855 2.7841333 20.02832031 5.62451172 C20.06399571 11.79135288 20.11788664 17.95783008 20.18390274 24.12441826 C20.22323207 27.85932926 20.25549097 31.59400965 20.27099609 35.32910156 C20.28625975 38.94096111 20.32087336 42.55218599 20.36830902 46.16376114 C20.38302376 47.53423639 20.39103526 48.90480231 20.39188385 50.27535629 C20.40247977 58.81614326 20.48738498 67.88002374 26.44683838 74.64157104 C31.87679666 79.39073073 36.14616803 80.38920714 43.17578125 80.2578125 C48.82407044 79.74220104 53.69090585 77.77045738 58 74 C56.84826645 76.46800047 55.95216435 78.04783565 54 80 C53.01 80 52.02 80 51 80 C51 80.66 51 81.32 51 82 C43.38976178 83.82256162 34.65837165 83.35819851 27.75390625 79.4375 C23.30810048 75.79372155 20.09081714 70.6395044 19 65 C18.91289894 62.89175863 18.882321 60.78093423 18.88647461 58.67089844 C18.88655014 57.38987244 18.88662567 56.10884644 18.88670349 54.78900146 C18.89180974 53.39579225 18.89702573 52.00258343 18.90234375 50.609375 C18.90420968 49.18019663 18.90563276 47.75101762 18.90663147 46.32183838 C18.91044285 42.56699852 18.92026133 38.81219757 18.93133545 35.05737305 C18.94157925 31.22314988 18.94613545 27.38892041 18.95117188 23.5546875 C18.96188487 16.03643857 18.97947047 8.5182297 19 1 C13.39 1 7.78 1 2 1 C1.67 21.46 1.34 41.92 1 63 C0.67 63 0.34 63 0 63 C0 42.21 0 21.42 0 0 Z"/>
<path transform="translate(888,443)" fill="#3D96A3" d="M0 0 C1.98 0 3.96 0 6 0 C6.09312106 8.80643336 6.16397667 17.61269443 6.20724869 26.41951466 C6.22802841 30.50991656 6.25616732 34.59997896 6.30175781 38.69018555 C6.34556259 42.64542107 6.3692092 46.60033227 6.37950897 50.55579185 C6.38683881 52.05672999 6.40115047 53.55765254 6.42292023 55.0584507 C6.60145197 67.88918758 4.57490555 78.99594353 -4 89 C-7.69558475 92.36652583 -11.22446186 95.40815395 -16 97 C-16 96.34 -16 95.68 -16 95 C-15.34 95 -14.68 95 -14 95 C-14 94.34 -14 93.68 -14 93 C-13.01 93 -12.02 93 -11 93 C-10.67 92.01 -10.34 91.02 -10 90 C-9.34 90 -8.68 90 -8 90 C-8 89.34 -8 88.68 -8 88 C-7.34 88 -6.68 88 -6 88 C-5.67 87.01 -5.34 86.02 -5 85 C-4.01 84.505 -4.01 84.505 -3 84 C3.62189534 71.85985854 4.28552782 59.43808115 4.4140625 45.82421875 C4.43342865 44.53304642 4.4527948 43.24187408 4.4727478 41.91157532 C4.52341473 38.52685329 4.56338401 35.14209215 4.60089111 31.75720215 C4.64134858 28.28400529 4.69224722 24.81096178 4.7421875 21.33789062 C4.83816838 14.55870663 4.92281418 7.77942342 5 1 C3.35 1 1.7 1 0 1 C0 0.67 0 0.34 0 0 Z"/>
<path transform="translate(873,442)" fill="#C6F1F4" d="M0 0 C0.33 0 0.66 0 1 0 C1.09317588 8.15452721 1.16400367 16.30882751 1.20724869 24.46375751 C1.22801684 28.25150328 1.25613353 32.03888163 1.30175781 35.82641602 C1.34560532 39.48988073 1.36921783 43.15299477 1.37950897 46.81670189 C1.38683135 48.20600076 1.40112787 49.59528307 1.42292023 50.98443031 C1.55660908 59.86952373 1.48671815 69.43764492 -4.37689209 76.70698547 C-9.88694595 81.69257963 -16.08501518 82.50196698 -23.234375 82.39453125 C-27.54247636 81.77995747 -30.76120393 79.85776124 -34 77 C-34.33 76.34 -34.66 75.68 -35 75 C-29.125 76.875 -29.125 76.875 -28 78 C-21.29193686 79.23209323 -14.67257405 79.66814351 -8 78 C-8 77.01 -8 76.02 -8 75 C-7.34 75 -6.68 75 -6 75 C-6 74.34 -6 73.68 -6 73 C-5.34 73 -4.68 73 -4 73 C-3.87625 72.484375 -3.7525 71.96875 -3.625 71.4375 C-3 69 -3 69 -1.98681641 66.23803711 C-0.28066673 60.24284634 -0.63911274 53.93655087 -0.5859375 47.75390625 C-0.56720314 46.37384411 -0.54762808 44.99379315 -0.5272522 43.61375427 C-0.4761641 40.00207138 -0.43641455 36.39035145 -0.39910889 32.77850342 C-0.35892199 29.08466606 -0.30789705 25.39097969 -0.2578125 21.69726562 C-0.16132984 14.46494774 -0.07683775 7.23255612 0 0 Z"/>
<path transform="translate(812,440)" fill="#E2FFFF" d="M0 0 C3.47914941 -0.02887814 6.95826831 -0.04675687 10.4375 -0.0625 C11.92733398 -0.07506836 11.92733398 -0.07506836 13.44726562 -0.08789062 C14.39150391 -0.09111328 15.33574219 -0.09433594 16.30859375 -0.09765625 C17.62041626 -0.10551147 17.62041626 -0.10551147 18.95874023 -0.11352539 C21 0 21 0 22 1 C22.10791955 2.95158294 22.14628323 4.90704114 22.15771484 6.86157227 C22.16797699 8.11700333 22.17823914 9.37243439 22.18881226 10.66590881 C22.19225018 11.34169542 22.1956881 12.01748203 22.19923019 12.71374702 C22.21100779 14.82903069 22.23046194 16.94410911 22.25234985 19.05931091 C22.31397178 25.07535878 22.36783274 31.09139107 22.40136719 37.10766602 C22.42241999 40.78539312 22.45781802 44.46275498 22.50212479 48.14027214 C22.51621399 49.53753263 22.52499112 50.93485786 22.52817917 52.33218575 C22.54753564 60.01073671 23.01280718 65.93714885 26 73 C25.58798218 75.20802307 25.58798218 75.20802307 25 77 C20.12328607 69.50774746 20.4817726 62.18990568 20.609375 53.5625 C20.61684704 52.07178511 20.62253542 50.58106031 20.62652588 49.09033203 C20.64170677 45.19061565 20.68092154 41.29150711 20.7253418 37.39202881 C20.76645891 33.40336324 20.78457177 29.41459824 20.8046875 25.42578125 C20.84742497 17.61687996 20.9177109 9.80860302 21 2 C13.74 2 6.48 2 -1 2 C-0.67 1.34 -0.34 0.68 0 0 Z"/>
<path transform="translate(916,442)" fill="#3494A7" d="M0 0 C5.94 0 11.88 0 18 0 C18 32.01 18 64.02 18 97 C16.515 96.505 16.515 96.505 15 96 C15.66 96 16.32 96 17 96 C16.505 49.965 16.505 49.965 16 3 C10.72 2.34 5.44 1.68 0 1 C0 0.67 0 0.34 0 0 Z"/>
<path transform="translate(126,543)" fill="#C3DADE" d="M0 0 C18.15 0 36.3 0 55 0 C51.75715221 2.16189853 50.89903779 2.24626755 47.16137695 2.22705078 C45.69019157 2.22682419 45.69019157 2.22682419 44.18928528 2.22659302 C43.13295395 2.21627045 42.07662262 2.20594788 40.98828125 2.1953125 C39.90491989 2.1924826 38.82155853 2.18965271 37.70536804 2.18673706 C34.24096692 2.17553091 30.77682315 2.15042534 27.3125 2.125 C24.96549852 2.11497077 22.618493 2.10584482 20.27148438 2.09765625 C14.51422357 2.07559012 8.75715544 2.04105712 3 2 C3.66 4.97 4.32 7.94 5 11 C0 4.63636364 0 4.63636364 0 0 Z"/>
<path transform="translate(182,477)" fill="#194659" d="M0 0 C1.8125 1.0625 1.8125 1.0625 3 3 C3.3125 6.5625 3.3125 6.5625 3 10 C1 12 1 12 -2.5 12.25 C-6 12 -6 12 -8 10 C-8.55416667 3.90416667 -8.55416667 3.90416667 -6.8125 1.0625 C-4.33950907 -0.38718434 -2.82115488 -0.42317323 0 0 Z"/>
<path transform="translate(128.0625,477.1875)" fill="#194356" d="M0 0 C2.9375 0.8125 2.9375 0.8125 4.9375 2.8125 C5.26704432 5.91021665 5.39084601 7.98581023 3.875 10.75 C0.75607551 12.46037795 -1.71807801 11.61763863 -5.0625 10.8125 C-6.46185013 8.01379973 -6.31515405 5.90751208 -6.0625 2.8125 C-4.31169972 -0.20276715 -3.50175349 -0.21439307 0 0 Z"/>
<path transform="translate(810,442)" fill="#E3FFFF" d="M0 0 C0.33 0 0.66 0 1 0 C1.00586624 0.78323639 1.01173248 1.56647278 1.01777649 2.3734436 C1.07608562 9.8156562 1.14837436 17.25754846 1.23571491 24.69947243 C1.28012404 28.52391002 1.3194415 32.34824826 1.34643555 36.17285156 C1.37276702 39.87540804 1.41336991 43.5775759 1.46318626 47.27988815 C1.47965622 48.68055702 1.49129241 50.08129279 1.49761391 51.48204422 C1.54528056 61.08844711 2.63926377 69.69939117 5 79 C4.34 79 3.68 79 3 79 C3 77.68 3 76.36 3 75 C2.34 75 1.68 75 1 75 C-0.26740234 67.21139598 -0.12674304 59.4289202 -0.09765625 51.5625 C-0.09578823 50.07177783 -0.09436614 48.58105504 -0.09336853 47.09033203 C-0.08957356 43.19088 -0.0797695 39.29146596 -0.06866455 35.39202881 C-0.05838507 31.40328485 -0.05385698 27.41453467 -0.04882812 23.42578125 C-0.03814416 15.61717029 -0.02110456 7.80859049 0 0 Z"/>
<path transform="translate(281,468)" fill="#DEF2F5" d="M0 0 C0.33 0 0.66 0 1 0 C1.74805717 7.02639415 2.13794954 13.93391809 2 21 C4.37662822 20.9123127 6.74983127 20.80536886 9.125 20.6875 C9.79015625 20.66494141 10.4553125 20.64238281 11.140625 20.61914062 C15.76178997 20.36996016 19.05731504 19.41496799 23 17 C25.44641497 13.7943528 26.43251874 10.97236879 27 7 C27.33 7 27.66 7 28 7 C27.74779531 12.78809773 27.43487494 16.82600006 23 21 C20.11734851 21.96088383 18.32337729 22.11670941 15.33203125 22.09765625 C14.52741455 22.09515869 13.72279785 22.09266113 12.89379883 22.09008789 C11.36855591 22.07643188 11.36855591 22.07643188 9.8125 22.0625 C4.9553125 22.0315625 4.9553125 22.0315625 0 22 C0 14.74 0 7.48 0 0 Z"/>
<path transform="translate(266,453)" fill="#2A5060" d="M0 0 C5.072007 -0.04942365 10.14387394 -0.08573068 15.21606445 -0.10986328 C16.94167523 -0.11992326 18.66726895 -0.13357276 20.39282227 -0.15087891 C22.8726014 -0.17512754 25.35215523 -0.18648301 27.83203125 -0.1953125 C28.60400345 -0.20563507 29.37597565 -0.21595764 30.17134094 -0.22659302 C33.99281476 -0.22739422 35.74136107 -0.17242595 39 2 C37.91992676 2.02505615 36.83985352 2.0501123 35.72705078 2.07592773 C31.72757688 2.16995572 27.72827853 2.27018754 23.72900391 2.37231445 C21.99662374 2.4156808 20.26420037 2.45735463 18.53173828 2.49731445 C16.04446373 2.55497594 13.55740707 2.61868198 11.0703125 2.68359375 C10.29317902 2.70030624 9.51604553 2.71701874 8.71536255 2.73423767 C4.72725784 2.76473429 4.72725784 2.76473429 1 4 C0.67 2.68 0.34 1.36 0 0 Z"/>
<path transform="translate(629,474)" fill="#0D3748" d="M0 0 C4.62 0 9.24 0 14 0 C14 6.93 14 13.86 14 21 C13.67 21 13.34 21 13 21 C12.67 14.73 12.34 8.46 12 2 C9.03 2 6.06 2 3 2 C0.96876925 4.03123075 1.74330382 8.17768866 1.68359375 10.97265625 C1.66281265 11.77029892 1.64203156 12.56794159 1.62062073 13.38975525 C1.55503842 15.94724611 1.49620033 18.5048428 1.4375 21.0625 C1.39432301 22.79232882 1.35070899 24.52214679 1.30664062 26.25195312 C1.19934828 30.5011926 1.09810574 34.7505389 1 39 C0.67 39 0.34 39 0 39 C0 26.13 0 13.26 0 0 Z"/>
<path transform="translate(834,511)" fill="#439AA7" d="M0 0 C0.99 1.485 0.99 1.485 2 3 C5.26578553 7.35438071 7.68804955 10.22934985 13 12 C21.05023393 12.88898289 27.69902095 11.90316086 34.5 7.3125 C34.995 6.879375 35.49 6.44625 36 6 C34.84826645 8.46800047 33.95216435 10.04783565 32 12 C31.01 12 30.02 12 29 12 C29 12.66 29 13.32 29 14 C21.2065443 15.86644003 12.65303265 15.26475829 5.625 11.23828125 C2.95772058 9.20576304 1.48579497 6.97158994 0 4 C0 2.68 0 1.36 0 0 Z"/>
<path transform="translate(411,451)" fill="#0B3A4C" d="M0 0 C1.98 0 3.96 0 6 0 C5.02688873 0.57860527 5.02688873 0.57860527 4.03411865 1.16889954 C1.7905275 2.82904915 1.7905275 2.82904915 1.48101807 5.41081238 C1.47213562 6.36345474 1.46325317 7.31609711 1.45410156 8.29760742 C1.43438293 9.37850143 1.41466431 10.45939545 1.39434814 11.57304382 C1.39311951 12.73874405 1.39189087 13.90444427 1.390625 15.10546875 C1.37408875 16.29981033 1.35755249 17.49415192 1.34051514 18.72468567 C1.29186497 22.5456752 1.2706255 26.36626626 1.25 30.1875 C1.22185471 32.77541086 1.19192934 35.36330302 1.16015625 37.95117188 C1.0861013 44.3007085 1.03455866 50.65013227 1 57 C0.67 57 0.34 57 0 57 C0 38.19 0 19.38 0 0 Z"/>
<path transform="translate(872,538)" fill="#53A3B0" d="M0 0 C-0.33 0.99 -0.66 1.98 -1 3 C-9.09988349 6.889865 -18.26754094 6.31818677 -27 6 C-27 5.34 -27 4.68 -27 4 C-25.9378125 3.96261719 -24.875625 3.92523437 -23.78125 3.88671875 C-15.74137628 3.53608485 -7.49386294 0 0 0 Z"/>
<path transform="translate(306,526)" fill="#1D4753" d="M0 0 C0.99 0.33 1.98 0.66 3 1 C3.33 2.65 3.66 4.3 4 6 C5.91697937 5.85833643 7.83357723 5.71150416 9.75 5.5625 C10.81734375 5.48128906 11.8846875 5.40007813 12.984375 5.31640625 C15.43679962 5.05909227 17.63921291 4.68187782 20 4 C20.33 5.32 20.66 6.64 21 8 C18.24763726 8.16225719 15.50482524 8.2809328 12.75 8.375 C11.97269531 8.42527344 11.19539063 8.47554687 10.39453125 8.52734375 C8.11817945 8.58571174 6.2096092 8.55969289 4 8 C0 3.44785276 0 3.44785276 0 0 Z"/>
<path transform="translate(609,515)" fill="#204855" d="M0 0 C4.03810445 1.34603482 5.47295076 3.65336723 8 7 C8 7.66 8 8.32 8 9 C8.66 9 9.32 9 10 9 C8.95125002 11.62187494 8.35068687 12.79371361 5.875 14.25 C5.25625 14.4975 4.6375 14.745 4 15 C4.20625 13.906875 4.4125 12.81375 4.625 11.6875 C5.40346525 7.9161599 5.40346525 7.9161599 3 5 C2.236875 5.20625 1.47375 5.4125 0.6875 5.625 C-2 6 -2 6 -5 4 C-4.360625 3.71125 -3.72125 3.4225 -3.0625 3.125 C-0.84793921 2.17176549 -0.84793921 2.17176549 0 0 Z"/>
<path transform="translate(123,469)" fill="#D4E7EC" d="M0 0 C0 0.66 0 1.32 0 2 C-0.7425 2.391875 -1.485 2.78375 -2.25 3.1875 C-5.7892214 5.52016865 -7.57730304 8.01304085 -9 12 C-8.91778291 15.07665027 -8.91778291 15.07665027 -8 18 C-7.66666667 20 -7.33333333 22 -7 24 C-10.34916507 20.94206668 -10.9363898 18.7760444 -11.3125 14.1875 C-11.24804334 9.79639006 -9.84937886 7.38845054 -7 4 C-2.57894737 0 -2.57894737 0 0 0 Z"/>
<path transform="translate(226,421.8125)" fill="#325666" d="M0 0 C1.051875 -0.02126953 1.051875 -0.02126953 2.125 -0.04296875 C4 0.1875 4 0.1875 6 2.1875 C4.2365625 2.001875 4.2365625 2.001875 2.4375 1.8125 C-2.07243415 1.82051054 -4.38030344 3.32339895 -7.58984375 6.38671875 C-9.79058802 9.19708748 -10.37171061 11.69700337 -11 15.1875 C-11.33 15.1875 -11.66 15.1875 -12 15.1875 C-12.42056594 11.75287817 -12.63981991 9.19264918 -10.734375 6.19921875 C-7.3748448 2.26074038 -5.33064718 0.04899492 0 0 Z"/>
<path transform="translate(472,513)" fill="#1A4954" d="M0 0 C0.66 0.66 1.32 1.32 2 2 C-2.81776765 12.74259681 -2.81776765 12.74259681 -8 16 C-8 14.68 -8 13.36 -8 12 C-7.01 12 -6.02 12 -5 12 C-5 11.01 -5 10.02 -5 9 C-4.34 9 -3.68 9 -3 9 C-2.814375 8.1646875 -2.814375 8.1646875 -2.625 7.3125 C-1.94023145 4.77885636 -1.00866237 2.42078968 0 0 Z"/>
<path transform="translate(307,484)" fill="#426A79" d="M0 0 C0.66 0.99 1.32 1.98 2 3 C-0.28024059 5.56843065 -2.12957515 6.88815678 -5.56884766 7.33007812 C-8.65824384 7.39347133 -11.72404333 7.34810614 -14.8125 7.25 C-15.88693359 7.23195313 -16.96136719 7.21390625 -18.06835938 7.1953125 C-20.71315465 7.14829392 -23.35611589 7.0825916 -26 7 C-26 6.67 -26 6.34 -26 6 C-25.42032471 5.98541748 -24.84064941 5.97083496 -24.2434082 5.95581055 C-21.59912447 5.88101472 -18.95605998 5.78446102 -16.3125 5.6875 C-14.94448242 5.65366211 -14.94448242 5.65366211 -13.54882812 5.61914062 C-8.62918468 5.42235489 -4.9548249 5.26212644 -1 2 C-0.67 1.34 -0.34 0.68 0 0 Z"/>
<path transform="translate(590.25,470.9375)" fill="#D7E9ED" d="M0 0 C1.89492188 0.01353516 1.89492188 0.01353516 3.828125 0.02734375 C4.79234375 0.03894531 5.7565625 0.05054688 6.75 0.0625 C6.75 0.3925 6.75 0.7225 6.75 1.0625 C5.69941406 1.14886719 4.64882813 1.23523438 3.56640625 1.32421875 C-4.67588093 2.11116093 -11.36522598 3.05191446 -18.25 8.0625 C-18.25 7.0725 -18.25 6.0825 -18.25 5.0625 C-11.68970341 1.15155396 -7.77460637 -0.0719871 0 0 Z"/>
<path transform="translate(715,528)" fill="#D3EEF3" d="M0 0 C1.65 1.32 3.3 2.64 5 4 C4.01 4.33 3.02 4.66 2 5 C1.67 12.26 1.34 19.52 1 27 C0.67 27 0.34 27 0 27 C0 18.09 0 9.18 0 0 Z"/>
<path transform="translate(240,496)" fill="#E8F5F6" d="M0 0 C0.33 0 0.66 0 1 0 C1.92255125 15.74487472 1.92255125 15.74487472 -4 23 C-5.32 22.67 -6.64 22.34 -8 22 C-7.21625 21.443125 -6.4325 20.88625 -5.625 20.3125 C-1.98165212 17.10288401 -1.18031847 14.45105338 -0.5859375 9.66796875 C-0.51632813 8.51941406 -0.44671875 7.37085938 -0.375 6.1875 C-0.26285156 4.44533203 -0.26285156 4.44533203 -0.1484375 2.66796875 C-0.09945312 1.78753906 -0.05046875 0.90710938 0 0 Z"/>
<path transform="translate(506,489)" fill="#C5DBDF" d="M0 0 C0.66 0 1.32 0 2 0 C1 2 0 4 -1 6 C-1.66 6 -2.32 6 -3 6 C-3 7.65 -3 9.3 -3 11 C-3.66 11 -4.32 11 -5 11 C-5 13.97 -5 16.94 -5 20 C-5.33 20 -5.66 20 -6 20 C-6.76490782 12.42174659 -6.01088145 7.79278576 -1.5078125 1.58203125 C-0.76144531 0.79892578 -0.76144531 0.79892578 0 0 Z"/>
<path transform="translate(174,582)" fill="#3F5F6B" d="M0 0 C0.33 0 0.66 0 1 0 C1 4.62 1 9.24 1 14 C-1.97 14.66 -4.94 15.32 -8 16 C-8 15.01 -8 14.02 -8 13 C-6.02 12.67 -4.04 12.34 -2 12 C-1.34 8.04 -0.68 4.08 0 0 Z"/>
<path transform="translate(833,499)" fill="#D3F8FA" d="M0 0 C0.33 0 0.66 0 1 0 C1.12117187 0.67546875 1.24234375 1.3509375 1.3671875 2.046875 C1.53476562 2.93890625 1.70234375 3.8309375 1.875 4.75 C2.03742187 5.63171875 2.19984375 6.5134375 2.3671875 7.421875 C2.88227148 9.99462563 2.88227148 9.99462563 4.1328125 12.078125 C5.21046105 14.46642719 4.86361008 15.58189178 4 18 C0.28392452 11.72912263 -0.53449652 7.24539726 0 0 Z"/>
<path transform="translate(146,586)" fill="#224857" d="M0 0 C1 3 1 3 0.1796875 5.04296875 C-1.11516833 7.17133957 -2.3490422 9.13123774 -4 11 C-6.8125 11.5 -6.8125 11.5 -9 11 C-7.625 9.5 -7.625 9.5 -6 8 C-5.34 8 -4.68 8 -4 8 C-3.896875 7.4225 -3.79375 6.845 -3.6875 6.25 C-2.90207202 3.67950842 -1.69495803 2.06342716 0 0 Z"/>
<path transform="translate(199,554)" fill="#C3D7DB" d="M0 0 C4.62 0 9.24 0 14 0 C10.98082379 2.01278414 9.95409238 2.29192943 6.5 2.5625 C3.72110398 2.78944318 1.67744737 3.10751754 -1 4 C-0.67 2.68 -0.34 1.36 0 0 Z"/>
<path transform="translate(810,502)" fill="#D4F8F8" d="M0 0 C0.33 0 0.66 0 1 0 C2.32 6.27 3.64 12.54 5 19 C4.34 19 3.68 19 3 19 C3 17.68 3 16.36 3 15 C2.34 15 1.68 15 1 15 C0.67 10.05 0.34 5.1 0 0 Z"/>
<path transform="translate(740.0625,518.9375)" fill="#E1F3F5" d="M0 0 C1.4540625 0.0309375 1.4540625 0.0309375 2.9375 0.0625 C-0.51040468 3.28111052 -3.05136263 3.44302459 -7.6875 3.375 C-8.83476563 3.37113281 -9.98203125 3.36726562 -11.1640625 3.36328125 C-14.0625 3.0625 -14.0625 3.0625 -16.0625 1.0625 C-14.78052734 1.07990234 -14.78052734 1.07990234 -13.47265625 1.09765625 C-11.81556641 1.11119141 -11.81556641 1.11119141 -10.125 1.125 C-8.47177734 1.14240234 -8.47177734 1.14240234 -6.78515625 1.16015625 C-3.46581226 1.041098 -3.44345646 0.07027462 0 0 Z"/>
<path transform="translate(534,496)" fill="#CBE0E4" d="M0 0 C2.48421811 3.72632716 2.42240263 6.68661935 2 11 C1 14.5 1 14.5 0 17 C-0.33 17 -0.66 17 -1 17 C-1.10477512 11.21408489 -0.99250545 5.70690634 0 0 Z"/>
<path transform="translate(489,519)" fill="#1C4652" d="M0 0 C1.8125 0.1875 1.8125 0.1875 4 1 C5.04644066 2.63790712 6.0398183 4.31008021 7 6 C8.62836738 7.7041054 10.28769752 9.38025441 12 11 C7.72361306 10.5248459 5.76648508 8.12116265 3 5 C1.94712186 3.36622358 0.9272999 1.70818403 0 0 Z"/>
<path transform="translate(360,487)" fill="#DFF1F3" d="M0 0 C-1.24462045 3.73386136 -2.91307675 4.64805848 -6 7 C-7.0173873 7.98230498 -8.02596117 8.97469597 -9 10 C-9 5.69032084 -6.83274712 4.10253255 -4 1 C-2 0 -2 0 0 0 Z"/>
<path transform="translate(180,579)" fill="#E7F6F8" d="M0 0 C-1.875 3.875 -1.875 3.875 -3 5 C-3.23427778 7.01594582 -3.41336124 9.038474 -3.5625 11.0625 C-3.64628906 12.16722656 -3.73007813 13.27195312 -3.81640625 14.41015625 C-3.87699219 15.26480469 -3.93757812 16.11945312 -4 17 C-4.33 17 -4.66 17 -5 17 C-5.08076963 14.54101345 -5.14037143 12.08466258 -5.1875 9.625 C-5.21263672 8.92632813 -5.23777344 8.22765625 -5.26367188 7.5078125 C-5.29296875 5.4765625 -5.29296875 5.4765625 -5 2 C-2 0 -2 0 0 0 Z"/>
<path transform="translate(710,480)" fill="#264E5F" d="M0 0 C0.66 0.33 1.32 0.66 2 1 C0.16749123 4.1414436 -1.63698023 7.22602027 -4 10 C-4.66 10 -5.32 10 -6 10 C-4.6302836 6.00499382 -2.74277578 3.19990508 0 0 Z"/>
<path transform="translate(80.1875,420.875)" fill="#D9EAEE" d="M0 0 C1.08667969 0.01804687 2.17335938 0.03609375 3.29296875 0.0546875 C4.54013672 0.08949219 4.54013672 0.08949219 5.8125 0.125 C5.8125 0.785 5.8125 1.445 5.8125 2.125 C5.14863281 2.10179687 4.48476562 2.07859375 3.80078125 2.0546875 C-2.94642553 1.82521822 -2.94642553 1.82521822 -9.1875 4.125 C-9.5175 4.785 -9.8475 5.445 -10.1875 6.125 C-9.875 4.25 -9.875 4.25 -9.1875 2.125 C-5.66070901 -0.22619399 -4.15870515 -0.08943452 0 0 Z"/>
<path transform="translate(550,498)" fill="#A6BEC3" d="M0 0 C0.33 0 0.66 0 1 0 C1 5.94 1 11.88 1 18 C0.01 18.33 -0.98 18.66 -2 19 C-1.84660156 18.32582031 -1.69320312 17.65164063 -1.53515625 16.95703125 C-0.91516143 13.53122048 -0.6647426 10.16106553 -0.4375 6.6875 C-0.35371094 5.43324219 -0.26992188 4.17898438 -0.18359375 2.88671875 C-0.12300781 1.93410156 -0.06242188 0.98148437 0 0 Z"/>
<path transform="translate(458,509)" fill="#E4F7F9" d="M0 0 C0.671875 1.76953125 0.671875 1.76953125 1 4 C-0.109375 5.88671875 -0.109375 5.88671875 -1.75 7.6875 C-2.28109375 8.28949219 -2.8121875 8.89148438 -3.359375 9.51171875 C-5 11 -5 11 -8 12 C-7.34 10.68 -6.68 9.36 -6 8 C-5.34 8 -4.68 8 -4 8 C-3.67 7.01 -3.34 6.02 -3 5 C-2.34 5 -1.68 5 -1 5 C-0.67 3.35 -0.34 1.7 0 0 Z"/>
<path transform="translate(320,489)" fill="#1A4552" d="M0 0 C0.66 0.66 1.32 1.32 2 2 C0.88200014 3.33920838 -0.24461897 4.67122556 -1.375 6 C-2.00148438 6.7425 -2.62796875 7.485 -3.2734375 8.25 C-3.84320313 8.8275 -4.41296875 9.405 -5 10 C-5.66 10 -6.32 10 -7 10 C-6.34 8.68 -5.68 7.36 -5 6 C-4.34 6 -3.68 6 -3 6 C-3 5.34 -3 4.68 -3 4 C-2.34 4 -1.68 4 -1 4 C-0.67 2.68 -0.34 1.36 0 0 Z"/>
<path transform="translate(308,475)" fill="#C5DCE0" d="M0 0 C0.33 0 0.66 0 1 0 C0.87952582 5.02705917 0.75412763 8.09872551 -2.5625 12.0625 C-3.366875 12.701875 -4.17125 13.34125 -5 14 C-4.52819393 11.4522472 -3.87337093 9.79422776 -2.5 7.5625 C-0.98228219 4.96973207 -0.42152861 2.95070024 0 0 Z"/>
<path transform="translate(546,520)" fill="#D4E8EB" d="M0 0 C0.33 0.66 0.66 1.32 1 2 C-0.76227632 5.61730402 -2.64326421 7.80075931 -6 10 C-6.66 9.67 -7.32 9.34 -8 9 C-5.36 6.03 -2.72 3.06 0 0 Z"/>
<path transform="translate(295,468)" fill="#E2F3F6" d="M0 0 C6.02536998 -0.602537 6.02536998 -0.602537 8.80078125 1.11328125 C10.25599455 2.34621853 11.63479157 3.66808933 13 5 C12.67 5.66 12.34 6.32 12 7 C11.34 6.67 10.68 6.34 10 6 C10 5.34 10 4.68 10 4 C8.68 3.67 7.36 3.34 6 3 C6 2.34 6 1.68 6 1 C4.02 1 2.04 1 0 1 C0 0.67 0 0.34 0 0 Z"/>
<path transform="translate(615,522)" fill="#2A505C" d="M0 0 C0.66 0 1.32 0 2 0 C2 0.66 2 1.32 2 2 C2.66 2 3.32 2 4 2 C2.95125002 4.62187494 2.35068687 5.79371361 -0.125 7.25 C-0.74375 7.4975 -1.3625 7.745 -2 8 C-1.34 5.36 -0.68 2.72 0 0 Z"/>
<path transform="translate(179,467)" fill="#22495C" d="M0 0 C5.26053037 -0.31563182 8.44573816 0.33409063 13 3 C12.67 3.99 12.34 4.98 12 6 C8 4 4 2 0 0 Z"/>
<path transform="translate(86,444)" fill="#F0FBFB" d="M0 0 C0.66 0 1.32 0 2 0 C1.67 0.99 1.34 1.98 1 3 C0.77281504 5.56634861 0.58391816 8.11678107 0.4375 10.6875 C0.39431641 11.38939453 0.35113281 12.09128906 0.30664062 12.81445312 C0.2008264 14.54275206 0.09993419 16.2713511 0 18 C-0.33 18 -0.66 18 -1 18 C-1.02684312 15.18743719 -1.04676188 12.37512759 -1.0625 9.5625 C-1.07087891 8.76005859 -1.07925781 7.95761719 -1.08789062 7.13085938 C-1.0965143 5.08704779 -1.0522815 3.04316098 -1 1 C-0.67 0.67 -0.34 0.34 0 0 Z"/>
<path transform="translate(71,425)" fill="#3A5F6E" d="M0 0 C0.66 0.99 1.32 1.98 2 3 C1.34 4.32 0.68 5.64 0 7 C-0.66 7 -1.32 7 -2 7 C-2.33 8.32 -2.66 9.64 -3 11 C-3.32613618 6.32538149 -2.70582788 3.83325617 0 0 Z"/>
<path transform="translate(343,480)" fill="#244D60" d="M0 0 C0.33 0.99 0.66 1.98 1 3 C0.00390625 4.82421875 0.00390625 4.82421875 -1.4375 6.6875 C-1.91058594 7.31011719 -2.38367188 7.93273437 -2.87109375 8.57421875 C-3.24363281 9.04472656 -3.61617188 9.51523437 -4 10 C-4.33 9.01 -4.66 8.02 -5 7 C-4.00390625 5.17578125 -4.00390625 5.17578125 -2.5625 3.3125 C-2.08941406 2.68988281 -1.61632812 2.06726563 -1.12890625 1.42578125 C-0.75636719 0.95527344 -0.38382812 0.48476563 0 0 Z"/>
<path transform="translate(173,470)" fill="#DEEEF1" d="M0 0 C-1.5830577 4.2742558 -4.50568404 6.26531794 -8 9 C-6.68994234 5.06982701 -4.75047804 0 0 0 Z"/>
<path transform="translate(116,444)" fill="#DDEFF1" d="M0 0 C-1.24556092 0.81928886 -2.49666635 1.63015186 -3.75 2.4375 C-4.44609375 2.88996094 -5.1421875 3.34242188 -5.859375 3.80859375 C-7.92957014 4.9608009 -9.68696324 5.54676982 -12 6 C-4.8 -1.6 -4.8 -1.6 0 0 Z"/>
<path transform="translate(755,527)" fill="#28505E" d="M0 0 C-1.25125384 3.75376152 -2.5652404 4.24073289 -6 6 C-6.66 6 -7.32 6 -8 6 C-8 5.34 -8 4.68 -8 4 C-3.64705882 0 -3.64705882 0 0 0 Z"/>
<path transform="translate(339,520)" fill="#1F4C57" d="M0 0 C0.66 0 1.32 0 2 0 C2 0.66 2 1.32 2 2 C2.66 2 3.32 2 4 2 C5.625 4.5 5.625 4.5 7 7 C6.01 7 5.02 7 4 7 C0 2.65714286 0 2.65714286 0 0 Z"/>
<path transform="translate(459,510)" fill="#2B5565" d="M0 0 C0.66 0.99 1.32 1.98 2 3 C0.9024777 5.99324263 0.32317108 6.84610901 -2.625 8.25 C-3.40875 8.4975 -4.1925 8.745 -5 9 C-4.360625 8.071875 -3.72125 7.14375 -3.0625 6.1875 C-0.91377907 3.15780057 -0.91377907 3.15780057 0 0 Z"/>
<path transform="translate(109,447)" fill="#2B5363" d="M0 0 C0 3 0 3 -2.5 5.6875 C-3.325 6.450625 -4.15 7.21375 -5 8 C-5.99 7.67 -6.98 7.34 -8 7 C-5.36 4.69 -2.72 2.38 0 0 Z"/>
<path transform="translate(424,528)" fill="#24525D" d="M0 0 C2.475 0.495 2.475 0.495 5 1 C5 1.66 5 2.32 5 3 C5.99 3.33 6.98 3.66 8 4 C5 5 5 5 2.3125 3.6875 C1.549375 3.130625 0.78625 2.57375 0 2 C0 1.34 0 0.68 0 0 Z"/>
<path transform="translate(747,509)" fill="#DDF2F4" d="M0 0 C0.66 0 1.32 0 2 0 C1.58578031 4.83256305 -0.46413986 6.82679218 -4 10 C-3.35337374 6.5082182 -1.86282152 3.99671287 0 1 C0 0.67 0 0.34 0 0 Z"/>
<path transform="translate(76,482)" fill="#1B4354" d="M0 0 C-0.8125 1.9375 -0.8125 1.9375 -2 4 C-2.99 4.33 -3.98 4.66 -5 5 C-5 5.99 -5 6.98 -5 8 C-5.66 8 -6.32 8 -7 8 C-4.18918919 0 -4.18918919 0 0 0 Z"/>
<path transform="translate(148,586)" fill="#D8ECF2" d="M0 0 C3.3 0 6.6 0 10 0 C10 0.33 10 0.66 10 1 C8.14375 1.1546875 8.14375 1.1546875 6.25 1.3125 C2.7207134 1.73801682 0.62839034 2.48112592 -2 5 C-1.34 3.35 -0.68 1.7 0 0 Z"/>
<path transform="translate(197,554)" fill="#1D4657" d="M0 0 C0.66 0 1.32 0 2 0 C0.90931332 3.77545388 0.0916909 6.47043472 -3 9 C-2.5020163 5.26512223 -2.12508244 3.18762365 0 0 Z"/>
<path transform="translate(467,522)" fill="#25515D" d="M0 0 C0.66 0 1.32 0 2 0 C1.60196439 2.88575819 1.20990931 3.82189513 -1.0625 5.75 C-1.701875 6.1625 -2.34125 6.575 -3 7 C-3 5.68 -3 4.36 -3 3 C-2.01 3 -1.02 3 0 3 C0 2.01 0 1.02 0 0 Z"/>
<path transform="translate(722,488)" fill="#E2F3F6" d="M0 0 C0.66 0.33 1.32 0.66 2 1 C0.38405168 3.04119788 -1.2856382 5.04072937 -3 7 C-3.66 7 -4.32 7 -5 7 C-3.70700306 4.11562221 -2.34058637 2.12780579 0 0 Z"/>
<path transform="translate(758,524)" fill="#DEEEF1" d="M0 0 C0.66 0.66 1.32 1.32 2 2 C-1.465 4.97 -1.465 4.97 -5 8 C-5.66 7.67 -6.32 7.34 -7 7 C-6.21625 6.401875 -5.4325 5.80375 -4.625 5.1875 C-1.85425677 3.08914751 -1.85425677 3.08914751 0 0 Z"/>
<path transform="translate(683,521)" fill="#D6EAEC" d="M0 0 C0.33 1.32 0.66 2.64 1 4 C-1.4375 6.75 -1.4375 6.75 -4 9 C-4.66 8.67 -5.32 8.34 -6 8 C-4.02 5.36 -2.04 2.72 0 0 Z"/>
<path transform="translate(583,488)" fill="#E2F4F5" d="M0 0 C0.66 0.33 1.32 0.66 2 1 C0.38405168 3.04119788 -1.2856382 5.04072937 -3 7 C-3.66 7 -4.32 7 -5 7 C-3.70700306 4.11562221 -2.34058637 2.12780579 0 0 Z"/>
<path transform="translate(450,486)" fill="#244C5B" d="M0 0 C2.875 0.25 2.875 0.25 6 1 C7.375 3.0625 7.375 3.0625 8 5 C7.01 5.495 7.01 5.495 6 6 C4 4 2 2 0 0 Z"/>
<path transform="translate(916,443)" fill="#2C94A6" d="M0 0 C1.98 0 3.96 0 6 0 C4.35830472 2.02054804 2.69088222 4.02043058 1 6 C0.67 6 0.34 6 0 6 C0 4.02 0 2.04 0 0 Z"/>
</svg>